<svg width="36" height="35" viewBox="0 0 36 35" fill="none" xmlns="http://www.w3.org/2000/svg">
<path d="M0.692033 14.9263C0.284622 17.0038 0.284622 19.0814 0.692033 21.1589L4.86799 17.9931L0.692033 14.9263Z" fill="#63D1BB"/>
<path d="M25.2385 2.55963C20.3496 0.38314 14.6458 0.38314 9.65503 2.95535L17.294 8.49551L25.2385 2.55963Z" fill="#63D1BB"/>
<path d="M34.9146 14.0356L30.0256 17.6961L35.0164 21.3566C35.5257 18.9822 35.5257 16.41 34.9146 14.0356Z" fill="#63D1BB"/>
<path d="M9.75684 33.0306C14.6458 35.5039 20.6551 35.7017 25.7477 33.1295L17.4976 27.0947L9.75684 33.0306Z" fill="#63D1BB"/>
<path d="M8.43291 15.2222L2.11804 10.6714C1.81249 11.3639 1.50693 12.0564 1.30322 12.7489L6.70142 16.7062L8.43291 15.2222Z" fill="#63D1BB"/>
<path d="M19.3311 25.8084L27.7848 31.9421C28.0904 31.7443 28.3959 31.5464 28.5997 31.3485C28.9052 31.1507 29.2108 30.8539 29.5163 30.5571L21.0625 24.4233L19.3311 25.8084Z" fill="#63D1BB"/>
<path d="M11.9977 12.5516L4.46056 7.11035C3.9513 7.60501 3.54389 8.1986 3.13647 8.79218L10.1643 13.9366L11.9977 12.5516Z" fill="#63D1BB"/>
<path d="M22.896 23.137L31.1461 29.1718C31.6553 28.6771 32.0627 28.0836 32.4701 27.49L24.6275 21.752L22.896 23.137Z" fill="#63D1BB"/>
<path d="M15.5624 9.88059L7.71978 4.14258C7.51607 4.24151 7.31237 4.43937 7.10866 4.5383C6.70125 4.8351 6.29384 5.13189 5.98828 5.52762L13.8309 11.1667L15.5624 9.88059Z" fill="#63D1BB"/>
<path d="M26.4607 20.3675L33.5904 25.5119C33.8959 24.8194 34.2015 24.2258 34.5071 23.5333L28.294 18.9824L26.4607 20.3675Z" fill="#63D1BB"/>
<path d="M27.2757 3.64795L1.30322 23.3353C1.50693 24.0278 1.81249 24.7203 2.11804 25.4128L29.109 4.93406C28.5997 4.4394 27.9886 4.04367 27.2757 3.64795Z" fill="#63D1BB"/>
<path d="M31.6552 7.50621C31.3496 7.11049 31.0441 6.71476 30.7385 6.41797L3.23828 27.1935C3.44199 27.6882 3.74754 28.0839 4.0531 28.3807C4.15496 28.5786 4.35866 28.7764 4.46051 28.8754L32.1644 8.0998C31.9607 7.90194 31.8589 7.70408 31.6552 7.50621Z" fill="#63D1BB"/>
<path d="M33.2848 9.88037L6.09009 30.4581C6.59935 30.9527 7.21047 31.4474 7.82158 31.8431L34.3033 11.859C33.9977 11.1665 33.6922 10.474 33.2848 9.88037Z" fill="#63D1BB"/>
</svg>
