<svg width="34" height="39" viewBox="0 0 34 39" fill="none" xmlns="http://www.w3.org/2000/svg">
<path d="M16.7563 38.2734C25.8313 38.2734 33.2563 30.9186 33.2563 21.9294C24.1813 21.9294 16.7563 29.182 16.7563 38.2734ZM5.0001 16.924C5.0001 19.4777 7.0626 21.4186 9.5376 21.4186C10.4657 21.4186 11.3938 21.1121 12.1157 20.6014V20.9078C12.1157 23.4616 14.1782 25.4025 16.6532 25.4025C19.2313 25.4025 21.1907 23.3595 21.1907 20.9078V20.6014C21.9126 21.1121 22.8407 21.4186 23.7688 21.4186C26.347 21.4186 28.3063 19.3756 28.3063 16.924C28.3063 15.0853 27.2751 13.553 25.7282 12.838C27.2751 12.1229 28.3063 10.5906 28.3063 8.75193C28.3063 6.19817 26.2438 4.25731 23.7688 4.25731C22.8407 4.25731 21.9126 4.56376 21.1907 5.07451V4.76806C21.1907 2.2143 19.1282 0.273438 16.6532 0.273438C14.0751 0.273438 12.1157 2.31645 12.1157 4.76806V5.07451C11.3938 4.56376 10.4657 4.25731 9.5376 4.25731C6.95947 4.25731 5.0001 6.30032 5.0001 8.75193C5.0001 10.5906 6.03135 12.1229 7.57822 12.838C6.13447 13.553 5.0001 15.0853 5.0001 16.924ZM16.7563 8.24118C19.3345 8.24118 21.2938 10.2842 21.2938 12.7358C21.2938 15.2896 19.2313 17.2304 16.7563 17.2304C14.1782 17.2304 12.2188 15.1874 12.2188 12.7358C12.2188 10.2842 14.1782 8.24118 16.7563 8.24118ZM0.256348 21.9294C0.256348 30.9186 7.68135 38.2734 16.7563 38.2734C16.7563 29.182 9.33135 21.9294 0.256348 21.9294Z" fill="#63D1BB"/>
</svg>
