<svg width="41" height="63" viewBox="0 0 41 63" fill="none" xmlns="http://www.w3.org/2000/svg">
<g>
<path d="M16.1574 38.5126C15.8582 39.5078 15.9579 40.702 16.1574 42.0953C16.6562 44.6828 17.8532 48.0664 18.5514 51.7486H23.6387C24.337 48.166 25.534 44.7823 26.1325 42.0953C26.4317 40.702 26.4317 39.4083 26.1325 38.5126C25.8332 37.6169 25.2347 36.9203 24.1375 36.2236H18.1524C16.9554 36.9203 16.3569 37.6169 16.1574 38.5126Z" fill="#149080"/>
<path d="M27.9281 58.417H14.1625C12.8658 58.417 11.8683 59.4122 11.8683 60.6064V62.7958H14.1625H27.9281H30.2224V60.6064C30.2224 59.4122 29.2249 58.417 27.9281 58.417Z" fill="#149080"/>
<path d="M35.0104 2.98532H23.3396C23.3396 1.79109 22.3421 0.795898 21.0453 0.795898C19.7485 0.795898 18.751 1.79109 18.751 2.98532H7.0802L0.995422 28.3627C1.79343 27.8651 2.59144 27.3676 3.58895 27.3676C4.98545 27.3676 5.78345 28.1637 6.48171 28.7608C7.17996 29.3579 7.67871 29.557 7.87821 29.557C8.17746 29.557 8.67622 29.2584 9.37447 28.7608C10.0727 28.2632 10.9705 27.3676 12.2672 27.3676C13.564 27.3676 14.4618 28.1637 15.16 28.7608C15.8583 29.2584 16.357 29.557 16.6563 29.557C16.756 29.557 16.9555 29.4575 17.2548 29.3579C17.4543 29.2584 17.7535 28.9599 18.1525 28.7608C18.6513 28.3627 19.2498 27.7656 20.1475 27.5666C20.4468 27.4671 20.746 27.4671 21.0453 27.4671C22.3421 27.4671 23.2398 28.2632 23.9381 28.8603C24.6363 29.3579 25.1351 29.6565 25.4343 29.6565C25.7336 29.6565 26.2323 29.3579 26.8308 28.8603C27.5291 28.2632 28.4268 27.4671 29.7236 27.4671C31.1201 27.4671 31.9181 28.2632 32.6164 28.8603C32.9156 29.1589 33.2149 29.3579 33.5141 29.4575C33.7136 29.557 33.9131 29.6565 34.1126 29.6565C34.4119 29.6565 34.9106 29.3579 35.5091 28.7608C36.2074 28.1637 37.1052 27.3676 38.4019 27.3676C39.3994 27.3676 40.1974 27.8651 40.9954 28.3627L35.0104 2.98532Z" fill="#149080"/>
<path d="M24.4369 53.9385H17.5541C16.8558 53.9385 16.4568 54.4361 16.4568 55.0332C16.4568 55.6303 16.9556 56.1279 17.5541 56.1279H24.4369C25.1352 56.1279 25.5341 55.6303 25.5341 55.0332C25.6339 54.4361 25.1352 53.9385 24.4369 53.9385Z" fill="#149080"/>
<path d="M21.0453 29.5557C20.9456 29.5557 20.7461 29.6552 20.4468 29.7547C20.2473 29.8542 20.0478 30.0533 19.8483 30.1528V33.835H22.1426V30.2523C21.6438 29.8542 21.2448 29.5557 21.0453 29.5557Z" fill="#149080"/>
</g>
</svg>
