<svg width="34" height="33" viewBox="0 0 34 33" fill="none" xmlns="http://www.w3.org/2000/svg">
<path d="M3.90204 32.7231H16.5167V18.9947H3.90204V32.7231ZM32.2599 9.4145H24.8929C25.3974 9.11821 25.902 8.92067 26.3057 8.62438C27.9204 7.53796 28.7277 6.05648 28.7277 4.67376C28.7277 3.48858 28.1222 2.50091 27.3149 1.80955C26.5075 1.1182 25.3974 0.723145 24.2873 0.723145C23.0763 0.723145 21.8653 1.1182 20.9571 1.80955C19.4433 2.79721 18.3332 4.2787 17.5259 5.85894C17.5259 5.95771 17.425 6.05647 17.425 6.05647C17.1222 5.46388 16.8195 4.87128 16.4158 4.27869C15.7094 3.29104 14.902 2.40215 13.8929 1.80955C12.8837 1.21696 11.7736 0.723145 10.5626 0.723145C9.35157 0.723145 8.24148 1.21697 7.33322 2.0071C6.52588 2.79722 5.92039 3.88363 5.92039 5.06882C5.92039 5.76017 6.12221 6.55029 6.52588 7.24165C7.13139 8.13054 7.93873 8.82191 9.14974 9.4145H2.48918C1.58092 9.4145 0.874512 10.1059 0.874512 10.9947V16.8219H16.4158V9.4145H18.3332V16.8219H33.8745V10.9947C33.8745 10.1059 33.1681 9.4145 32.2599 9.4145ZM9.75524 7.1429C9.14973 6.74783 8.74607 6.35277 8.54423 6.05647C8.3424 5.66141 8.24148 5.36511 8.24148 5.06882C8.24148 4.57499 8.44332 4.08116 8.94791 3.58734C9.35158 3.19227 9.95708 2.89598 10.5626 2.89598C11.269 2.89598 11.9754 3.09351 12.5809 3.58734C13.5901 4.27869 14.5993 5.36511 15.2048 6.74783C15.5075 7.43918 15.8103 8.13055 16.0121 8.8219C12.8837 8.52561 10.8653 7.83425 9.75524 7.1429ZM20.3516 5.56264C20.9571 4.77252 21.5626 4.08117 22.269 3.68611C22.9754 3.19228 23.6818 2.99475 24.2873 2.99475C24.8929 2.99475 25.3974 3.19228 25.8011 3.48858C26.2048 3.78488 26.4066 4.17993 26.4066 4.67376C26.4066 5.16759 26.1039 5.9577 24.8929 6.74783C23.7828 7.53795 21.7644 8.42684 18.7369 9.01943C19.0396 7.83425 19.6452 6.5503 20.3516 5.56264ZM18.3332 32.7231H30.9479V18.9947H18.3332V32.7231Z" fill="#63D1BB"/>
</svg>
