<svg width="48" height="28" viewBox="0 0 48 28" fill="none" xmlns="http://www.w3.org/2000/svg">
<path d="M43.9767 0.273438H4.84363C2.62475 0.273438 0.910156 1.95476 0.910156 4.13058V23.4163C0.910156 25.5921 2.62475 27.2734 4.84363 27.2734H43.9767C46.1956 27.2734 47.9102 25.5921 47.9102 23.4163V4.13058C47.9102 2.05366 46.0947 0.273438 43.9767 0.273438ZM3.93591 24.9987V3.04267H44.481V24.9987H3.93591Z" fill="#63D1BB"/>
<path d="M7.86938 21.1417H40.5475V6.8999H7.86938V21.1417ZM24.4102 8.77902C27.3351 8.77902 29.7557 11.1526 29.7557 14.0208C29.7557 16.8889 27.3351 19.2625 24.4102 19.2625C21.4853 19.2625 19.0647 16.8889 19.0647 14.0208C19.0647 11.0537 21.4853 8.77902 24.4102 8.77902Z" fill="#63D1BB"/>
</svg>
