<svg width="56" height="24" viewBox="0 0 56 24" fill="none" xmlns="http://www.w3.org/2000/svg">
<path d="M41.6852 6.47316C38.0455 5.48178 33.7992 4.7878 29.1485 4.7878C26.2165 4.7878 23.5878 4.98609 21.3635 5.38264L14.4886 0.723145H0.839665L6.70362 6.86971H15.1962C10.5455 8.45591 8.32124 10.3395 8.32124 10.3395V14.1068C8.32124 14.1068 10.6466 15.9904 15.2974 17.5766H6.60248L0.738525 23.7231H14.3874L21.2624 19.0637C23.5878 19.4602 26.1154 19.6585 29.0473 19.6585C33.597 19.6585 37.8433 18.9645 41.5841 17.9732C40.3709 16.1887 39.6631 14.305 39.6631 12.124C39.7642 10.1412 40.5731 8.25764 41.6852 6.47316Z" fill="#63D1BB"/>
<path d="M45.2237 7.46436C43.9094 9.05056 43.2017 10.6368 43.2017 12.223C43.2017 13.8092 43.9094 15.3954 45.2237 16.9816C51.6943 14.8006 55.7384 12.223 55.7384 12.223C55.7384 12.223 51.6943 9.64539 45.2237 7.46436Z" fill="#63D1BB"/>
</svg>
