<svg width="61" height="61" viewBox="0 0 61 61" fill="none" xmlns="http://www.w3.org/2000/svg">
<path d="M0.365295 44.7892L27.7653 60.7959V37.3395L0.365295 21.2321V44.7892ZM51.6653 13.2791V15.7959C51.6653 17.608 48.1653 19.118 43.9653 19.118C39.6653 19.118 36.2653 17.608 36.2653 15.7959V11.6684C36.5653 13.3798 39.8653 14.7892 43.9653 14.7892C48.2653 14.7892 51.6653 13.2791 51.6653 11.467C51.6653 9.65497 48.1653 8.1449 43.9653 8.1449C43.6653 8.1449 43.2653 8.1449 42.9653 8.1449L37.9653 5.22544V8.34624C37.9653 10.1583 34.4653 11.6684 30.2653 11.6684C27.5653 11.6684 25.2653 11.0644 23.8653 10.1583C23.6653 9.95698 23.4653 9.75563 23.1653 9.55429C22.7653 9.1516 22.5653 8.74892 22.5653 8.34624V5.3261L17.7653 8.1449C17.4653 8.1449 17.0653 8.1449 16.6653 8.1449C12.3653 8.1449 8.9653 9.65497 8.9653 11.467C8.9653 13.2791 12.4653 14.7892 16.6653 14.7892C20.7653 14.7892 24.0653 13.3798 24.3653 11.6684V15.7959C24.3653 17.608 20.8653 19.118 16.6653 19.118C12.3653 19.118 8.9653 17.608 8.9653 15.7959V13.3798L2.9653 16.9033L30.4653 33.0107L57.8653 17.004L51.6653 13.2791ZM38.0653 23.5476C38.0653 25.3597 34.5653 26.8697 30.3653 26.8697C26.0653 26.8697 22.6653 25.3597 22.6653 23.5476V19.4201C22.9653 21.1315 26.2653 22.5409 30.3653 22.5409C34.4653 22.5409 37.7653 21.1315 38.0653 19.4201V23.5476ZM32.9653 37.5409V60.7959L60.3653 44.7892V21.5342L32.9653 37.5409ZM30.2653 7.4402C34.5653 7.4402 37.9653 5.93013 37.9653 4.11805C37.9653 2.30597 34.4653 0.795898 30.2653 0.795898C25.9653 0.795898 22.5653 2.30597 22.5653 4.11805C22.5653 5.93013 25.9653 7.4402 30.2653 7.4402Z" fill="#149080"/>
</svg>
