<svg width="33" height="33" viewBox="0 0 33 33" fill="none" xmlns="http://www.w3.org/2000/svg">
<rect x="0.902832" y="0.105469" width="32" height="32" rx="8" fill="#EEEEEE"/>
<path d="M25.5347 17.5459C25.4487 15.2763 25.1043 13.0066 25.1043 10.737C25.1043 8.88763 25.4487 6.95422 24.76 5.18894C24.76 5.02082 24.8461 4.76863 24.8461 4.60051C25.0182 3.67584 22.0053 4.1802 21.5749 5.02082C21.3166 5.273 21.1444 5.52518 21.2305 5.86143C21.2305 5.94549 21.3166 6.02955 21.3166 6.11361C20.714 8.80357 19.9392 11.4935 19.0784 14.0994C18.7341 15.1082 18.3036 16.1169 17.9593 17.1256C17.4428 16.201 16.9263 15.2763 16.4959 14.2676C15.2907 11.3254 14.2577 8.38327 12.7942 5.60924C12.9664 4.34832 10.0395 4.43239 9.43691 5.60924C8.74823 7.03829 8.83432 8.46733 9.09257 10.0645C9.35082 11.8298 9.43691 13.511 9.43691 15.2763C9.43691 18.6387 9.78125 22.0012 9.78125 25.3636C9.43691 25.6999 9.35082 26.1202 9.69516 26.5405C9.86733 26.7086 10.0395 26.8767 10.2117 27.0449C10.9864 27.6333 13.2246 27.1289 13.2246 25.9521C13.2246 22.4215 12.9664 18.975 12.8803 15.4444C12.8803 15.1082 12.8803 14.7719 12.8803 14.4357C12.9664 14.5197 12.9664 14.6879 13.0525 14.7719C13.569 16.1169 14.1716 17.4619 14.9463 18.7228C15.7211 19.9837 16.0654 21.3287 16.4959 22.6737C16.3237 22.8418 16.2376 23.094 16.3237 23.2621C16.3237 23.4302 16.4098 23.5143 16.5819 23.5984C17.0984 24.1027 18.2175 23.8505 18.7341 23.5984C18.9923 23.5143 19.2506 23.3462 19.4227 23.2621C19.681 23.094 20.1975 22.6737 20.0253 22.2534C20.0253 22.1693 19.9392 22.0853 19.9392 22.0012C20.3697 20.9084 20.5418 19.8156 20.8001 18.6387C21.0583 17.4619 21.4888 16.285 21.9192 15.1082C22.0053 15.6125 22.0053 16.201 22.0914 16.7053C22.2635 18.8909 22.0914 20.9925 22.0914 23.178C22.0914 23.9346 22.1774 24.523 22.2635 25.2796C22.3496 25.5318 22.6079 26.7927 22.5218 26.8767C22.0053 27.3811 22.1774 27.9695 22.8661 28.0536C23.6409 28.2217 24.6739 27.9695 25.2765 27.4652C26.3095 26.5405 25.793 25.0274 25.6208 23.8505C25.1043 21.8331 25.5347 19.5634 25.5347 17.5459Z" fill="black"/>
</svg>
