<svg width="114" height="47" viewBox="0 0 114 47" fill="none" xmlns="http://www.w3.org/2000/svg">
  <path d="M111.72 42.54c4.43.9.8-35.82.1-38.22-2-6.58-26.84-2.1-32.37-1.7-12.77 1-25.33-1-37.8-.4-6.23.3-35.08-1.79-37.7 2-5.03 7.19-2.71 25.75-1.3 35.03-4.03.8 2.3 4.19 3.11 4.88 6.33 2.2 16.49-.2 23.12.4 15.49 1.5 31.97-2.2 47.56-1 4.52 1.1 9.65 1 14.27 1.2 3.52 5.6 19.8-2.4 21.01-2.2.5.1-.1 0 0 0Z" fill="#000"/>
  <path d="M27.07 25.08c-.1-2.5-.5-5.1-.5-7.59 0-2.1.4-4.19-.3-6.18 0-.2.1-.4.1-.7.2-1-3.12-.5-3.62.4-.3.3-.5.6-.4.9 0 .1.1.2.1.2-.6 2.99-1.5 5.98-2.51 8.88-.4 1.1-.8 2.2-1.21 3.39-.6-1-1.1-2.1-1.6-3.2C15.8 17.9 14.6 14.6 13 11.52c.2-1.5-3.02-1.3-3.72 0-.8 1.6-.7 3.19-.4 4.89.3 1.9.3 3.79.4 5.78 0 3.8.3 7.49.4 11.28-.3.4-.4.8-.1 1.3.2.2.3.4.5.5.9.7 3.32.1 3.32-1.2 0-3.9-.3-7.79-.4-11.68v-1.1c.1.1.1.3.2.4.6 1.5 1.2 3 2.11 4.4.8 1.4 1.2 2.89 1.71 4.39-.2.2-.3.4-.2.7 0 .2.1.3.2.3.6.5 1.71.3 2.41 0 .3-.1.5-.2.8-.4.3-.2.81-.6.71-1.1 0-.1-.1-.2-.1-.3.4-1.2.7-2.5.9-3.7a25 25 0 0 1 1.21-3.89c0 .6.1 1.2.1 1.8.2 2.4 0 4.79 0 7.18 0 .8.1 1.5.2 2.3.1.3.3 1.7.3 1.8-.6.5-.4 1.2.4 1.4.91.2 2.02-.1 2.62-.7 1.1-1 .6-2.7.3-4-.3-2 .3-4.49.2-6.78Zm7.95.7c-.1-1.9-.7-3.7-.7-5.6 0-2.19.2-4.38-.1-6.48-.1-.7-3.83.1-3.73 1 .3 2 .2 4 .2 5.99 0 1.9.4 3.69.7 5.58.3 2-.1 3.9.1 5.9.1.89.71 2.59.1 3.38-.4.5 1.42.3 1.52.3.7-.1 1.7-.4 2.2-1 .61-.8.2-2.29.1-3.19-.5-1.9-.3-3.99-.4-5.88Zm15.58-3.2c-2.01-2.6-5.63-.7-8.14-1.5-1.31-.4-1.31-2.19-1.31-3.19 0-1.4-.1-2.6-.3-3.89-.1-1 0-2 .7-2.8.1-.1.8-.3.8-.3.3-.1.6-.1 1.01-.1 1.5-.1 4.42.2 3.82 2.4-.3 1 3.42.4 3.72-.6 1.2-4.39-6.94-3.49-9.25-2.89-2.11.6-4.42 1.8-4.52 4.2-.1 1.19.3 2.29.3 3.38.1 1.3-.2 2.6.3 3.9 1 2.79 5.23 1.5 7.44 1.7 3.62.3 2.61 5.18 2.61 7.48 0 1.2 1.11 3.29.2 4.29-.6.6-1.9.7-2.6.7-.81.1-2.12.3-2.62-.4-.9-1.3.1-3.6-.1-5.1-.1-.9-3.92-.1-3.72 1 .3 2.5-1.31 5.8 2.3 6.3 2.32.29 4.94-.2 7.15-.9 1.1-.4 2.2-.9 3.11-1.7 1-.9.7-2.2.4-3.4-.8-2.99.5-6.18-1.3-8.58Zm16.59-.2c-.1-3.59-.7-7.08-.7-10.67 0-1.9-3.83-1.2-3.83.3 0 3.39.5 6.78.6 10.17v.2c-1.8 0-3.71.2-5.62.2.2-4.39-.6-8.78-.4-13.07 0-.6-3.73-.1-3.73 1-.2 4.19.6 8.48.4 12.67-.1 2-.2 4-.2 6.09 0 1 .2 2.1.3 3.1.1.89.51 2.19.2 3.08-.2.7 3.43.3 3.73-.7.5-1.69-.2-3.79-.4-5.48-.2-1.6 0-3.3.1-5 1.9-.1 3.92-.29 5.83 0l.3 3.9c.1 1.1.2 2.2.2 3.3 0 1 .1 2.39-.2 3.29-.7 2 3.01 1.8 3.52.3.7-1.8.5-4 .4-5.8-.1-2.19-.5-4.58-.5-6.88Zm16.08 4.29c-.9-2.6-2.31-4.89-3.42-7.38 1.01-1.9 1.91-3.7 2.82-5.59.8-1.7 1.4-3.59 2.91-4.79.5-.4.5-.8-.2-.9-.8-.1-2 .2-2.61.7a9.52 9.52 0 0 0-3.02 4.1c-.9 1.89-1.8 3.89-2.81 5.78-.1.1-.1.3-.2.4-.5.3-.7.7-.6 1.2-.81 1.5-1.51 3-2.42 4.39-.3-5.29-.9-10.48-1.1-15.77 0-1.2-3.82-.5-3.72 1 .2 6.49 1.2 12.97 1.2 19.46-.3.3-.2.5.1.6 0 1.7-.1 3.29-.2 4.99-.4.7.4 1.1 1 1.1h.1c.71 0 2.52-.3 2.62-1.3.2-2 .2-4 .2-6a28.4 28.4 0 0 0 3.82-5.28c.7 1.4 1.41 2.8 1.91 4.3.8 2.59 2.21 4.98 3.02 7.58.5 1.7 4.22.7 3.72-1-.9-2.6-2.21-5-3.12-7.59Zm22.43-4.39c-.21-.8-1.31-.8-2.22-.7v-1c-.1-2.49-.2-5.08-.4-7.58-.2-2.3-1.51-3.19-3.82-3.09-2.32.1-5.03.5-7.14 1.3a6.5 6.5 0 0 0-4.32 5.39c-.5 2.89.2 5.88.4 8.78.1 3.29.1 6.68.1 9.97 0 .5 3.72 0 3.72-1v-7.88c0-.8 0-1.5-.1-2.3 1.3-.59 3.52 0 4.82.1 1.11.1 2.12-.2 3.12-.3 0 2.2.1 4.4.2 6.6 0 1.1.5 3.39-.3 4.29-.4.5 1.4.3 1.5.3.81-.1 1.72-.4 2.22-1 .9-1.1.4-3.6.4-4.9-.1-1.79-.1-3.58-.1-5.38.9-.1 2.11-.8 1.91-1.6Zm-13.88-.2-.3-3.59c-.2-2.2.1-5.29 2.2-6.58.61-.4 1.62-.3 2.22-.4.9-.2 1.91-.4 2.71.2 1.11.8.9 3.49.9 4.59 0 1.9.21 3.79.31 5.68-.5.1-1.1.1-1.6.1-2.22-.1-4.43-.4-6.44 0ZM31.8 11.1c.5 0 1-.2 1.4-.5.1-.1.2-.1.2-.2.51-.29.91-.79.71-1.29-.5-1-.4-2.1-.4-3.2 0-.89-.9-1.19-1.71-1.09-.7.1-2.11.6-2.11 1.4 0 .9-.1 1.9.1 2.8 0 .1-.1.2-.1.3-.1.2 0 .39.1.59v.4c.1.2.2.4.4.5.5.3 1 .3 1.4.3Z" fill="#fff"/>
</svg>
