<svg width="150" height="73" viewBox="0 0 150 73" fill="none" xmlns="http://www.w3.org/2000/svg">
  <path d="M145.14 31.72c-1.5 1.09-3.12 1.88-4.73 2.77 0-1.68-.1-3.46-.6-5.04.1-.3.1-.69.1-.98.4-2.97.7-7.01-2.02-9.09-.3-.3-1.2 0-1.9.3-.21-.2-.31-.3-.51-.4-.1-.2-.2-.49-.2-.69 0-.1-.2-.2-.4-.2.3-.39.3-.78-.4-1.08-.41-.2-.81-.3-1.12-.4-.1-.1-.1-.1-.2-.1a24.5 24.5 0 0 0-2.92-.68c.1-.3.4-.8.6-.99.1-.2.3-.3.41-.4l.2-.2s.1 0 .1-.1l.1-.09c.4-.3.8-.89.2-1.18-.6-.3-1.5-.1-2 .2a6.65 6.65 0 0 0-2.12 2.36 42.3 42.3 0 0 0-6.14-.1c.1-.1.1-.2.1-.3.2-.59-.9-.49-1.21-.49l-4.73.6c1.4-3.76 3.12-8.5 1-12.15-1.2-2.07-3.92-2.56-6.14-2.66-2.41-.1-4.93.5-7.04 1.58-4.83 2.56-7.15 7.6-8.26 12.93-.5-.7-2.31-.4-2.61.5-.1.29-.2.59-.3.98-.2.2-.3.4-.3.6v.19h-.21c0-.1 0-.2.1-.3.1-.1.2-.2.3-.4.6-2.26 1.21-4.53 1.92-6.7.3-.8-2.52-.4-2.82.4-.4 1.18-.8 2.36-1.11 3.55-.2.1-.4.2-.4.3v.09c-.1-.1-.3-.2-.5-.2v-.98c0-.4-2.82 0-2.82.79v1.57c-.2.1-.3.2-.5.3l-.21.2c-.1.1-.1.2-.1.2v.1l-.1.1c-.1.1-.2.29 0 .49s.5.2.7.2h.1v.49h-.7l-.4-.1c0-.4-.7-.5-1.41-.3v-.1c-.1-.59-.2-1.18-.2-1.77.2-.1.5-.2.7-.3.2-.1.3-.2.3-.4v-.2c0-.19-.4-.19-.5-.19h-.6c-.1-1.28-.1-2.57-.1-3.85 0-.79-2.82-.3-2.82.8 0 1.77 0 3.54.2 5.22h-.3v-1.48c0-.98-1.31-1.18-2.12-.79.3-.3.5-.59.4-.98-.4-1.39-.8-2.77-1-4.25-.2-1.38-3.02-.69-2.82.79.2 1.48.6 2.86 1 4.25.2.78 1.31.88 2.12.49-.2.2-.4.5-.4.79v.6c-.3-.3-.5-.3-.9-.3-1.12 0-1.72.88-1.42 1.48-.2 0-.3-.1-.5-.1a11.8 11.8 0 0 1-.7-3.75c0-.9-1.31-1-2.12-.7v-.2c-.4-.78-.6-1.67-.8-2.46-.3-1.28-3.23-.6-2.82.79.2.6.3 1.28.5 1.87h-.1c-.3.1-.6.2-.9.4-.81.1-1.82.6-1.82 1.18.1.5.1 1 .2 1.39-.4.1-1 .1-1.5.2-.31-.8-.51-1.59-.61-2.38-.1-.88-1.61-.88-2.32-.3a24.39 24.39 0 0 0-3.12-5.72C56.15 3.9 51.62 2.7 47.5 3.6a9.44 9.44 0 0 0-5.04 2.57c-1.2 1.38-1.4 3.06-1.2 4.73.2 1.49.6 3.95 1.6 5.93-.4 0-.7 0-.9.1-.3.1-.6.2-.8.4-1.92 0-3.93 0-5.84-.1-4.23-.2-8.36-.9-12.59-.7-.9 0-1.5.7-1.5 1.28a4.29 4.29 0 0 0-2.12 2.28c-1.71-1.09-3.52-2.28-5.33-3.16-.71-.4-3.33.69-2.32 1.18 1.81.89 3.62 2.07 5.34 3.16.5.3 1.3.1 1.8-.1 0 0 .1 0 .2-.1a9.5 9.5 0 0 0 .21 4.44c0 .1.1.2.2.3V27c-.4.2-.7.49-.8.78-.2 1.39-.3 2.77-.3 4.15-.3.2-.51.5-.51.8-.2 3.25 0 6.6.5 9.86.2 2.67.7 5.23 1.21 7.9.1.4.1.79.2 1.28a8.04 8.04 0 0 0-.2 3.46c-.9.2-1.71.89-1.2 1.58a8.03 8.03 0 0 0 2.61 2.56c-.6-.1-1.4.1-1.91.6-.8.79-1.71 1.48-2.52 2.27-.4.4-.3.88.3 1.08.7.2 1.51-.1 2.02-.5.8-.78 1.7-1.47 2.51-2.26.2-.2.3-.5.2-.7 3.23 1.68 7.25 1.29 11.18.9-.9 1.57-1.51 3.25-2.22 4.93-.3.7 2.52.4 2.82-.4.6-1.67 1.21-3.25 2.12-4.83 3.72.1 7.55.1 11.27.1.1.2.4.3.7.3 3.33.29 6.55-.1 9.77-.7 4.83-.2 9.66-.5 14.5-.79 7.55-.2 15.2-.3 22.75-.3l.3.3c.3.3.6.3 1 .3h.2c.71 0 1.41.1 2.12.1.2 0 .3.1.6 0 .8.1 1.61.1 2.32.2.2.2.5.3.8.39 3.83.3 7.66.5 11.48.7.1.19.5.29.8.29 7.15.1 15.4 2.76 21.75-1.68.5-.4.3-.89-.3-.99h-.3a49.86 49.86 0 0 0 2.91-8.49c.4-.2.6-.5.6-.89 0-1.18.2-2.36.41-3.55.2-.89.3-1.78.4-2.66.4-2.18.8-4.35 1.01-6.42a43.92 43.92 0 0 0 6.64-3.75c1.61-1.19-.8-1.88-1.8-1.19Zm-55.77-14.8-.1.1c.1-.3.1-.6.2-.9h.1c0 .2-.1.5-.2.8Z" fill="#000"/>
  <path d="M64.71 13.17c.1.2.6.2.8.2.4 0 .81-.1 1.11-.2.4-.2 1.11-.6.8-1.1-.4-.58-.6-1.18-1-1.77-.1-.2-.6-.2-.8-.2-.4 0-.8.1-1.11.2-.4.2-1.1.6-.8 1.09.3.59.6 1.28 1 1.78Zm-42.88-1.68c.2.59 1.1.59 1.6.5.51-.1 1.42-.6 1.22-1.3-.2-.58-.4-1.28-.9-1.77-.51-.5-1.32-.4-1.92-.2-.4.2-1.21.8-.7 1.29.4.59.5.88.7 1.48Zm10.07 2.96c.8 0 3.11-1.28 1.2-1.28-.9 0-3.12 1.28-1.2 1.28Zm92.5-1.58c.3.1.71 0 1.11-.1.3-.1.7-.2.9-.5.41-.39.71-.68 1.02-1.18.1-.2.2-.4 0-.59-.2-.2-.5-.2-.81-.3-.4 0-.8.1-1.1.2-.31.1-.61.3-.81.6-.1.2-.2.39-.4.49l-.2.2c-.2.2-.3.39-.3.59.1.4.3.5.6.59Zm13.4 5.33c.6-.1 1.4-.2 1.9-.7 1.31-1.08 2.62-2.16 3.63-3.54.3-.4-1-.2-1.1-.2-.51.1-1.32.3-1.72.69-.9 1.28-2.21 2.27-3.42 3.36-.5.39.4.39.7.39Zm10.86 26.75h-4.93c-.6 0-1.5.5-1.6 1.09-.1.69.8.89 1.3.89h4.93c.6 0 1.51-.5 1.61-1.09.1-.7-.7-.89-1.3-.89Zm-90.29 15.8c-.5.1-1.41.3-1.61.78-.5 1.29-1 2.57-1.41 3.85-.2.7 2.62.3 2.82-.49.4-1.28.8-2.57 1.4-3.85.2-.5-1-.3-1.2-.3ZM63 63.31c-.3 0-.7.1-1 .2-.3.1-.71.2-1.01.4-.1.1-.3.2-.3.39v.3c0 .1-.1.2-.1.3-.1.09-.1.19 0 .29.2.1.5.1.7.1.4 0 .7-.1 1.1-.3.2-.1.61-.2.81-.4.1-.2.2-.3.3-.49v-.5c0-.29-.4-.29-.5-.29Zm55.47 3.65c-.4-.69-3.03.3-2.82.8.8 1.57 1.9 3.05 2.92 4.63.4.7 3.02-.4 2.82-.79-1.01-1.58-2.12-3.06-2.92-4.64Zm4.03-2.36c-.31-.6-1.11-.6-1.62-.4-.4.1-1.5.6-1.2 1.18.4.8.8 1.58 1.2 2.28.3.59 1.1.59 1.61.39.4-.1 1.51-.6 1.21-1.18-.4-.7-.8-1.49-1.2-2.28ZM6.73 43.27c-1.51.4-3.02.6-4.53.99-.5.1-1.31.6-1.2 1.28.2.7 1.1.7 1.7.6 1.51-.4 3.02-.6 4.53-1 .5-.09 1.31-.68 1.21-1.27-.3-.7-1.2-.7-1.71-.6Z" fill="#000"/>
  <path d="M45.08 40.31c-.1-2.66-.5-5.33-.5-8 0-2.17.4-4.44-.4-6.51 0-.2.1-.5.1-.7.2-1.08-3.33-.48-3.83.5-.3.3-.5.6-.4.99 0 .1.1.2.1.3a99.6 99.6 0 0 1-2.62 9.37c-.4 1.19-.9 2.37-1.3 3.56a35.31 35.31 0 0 1-1.72-3.36c-1.4-3.45-2.62-6.9-4.33-10.17.2-1.48-3.22-1.38-3.92 0-.8 1.68-.7 3.36-.4 5.23.3 2.08.4 4.05.4 6.13 0 3.94.4 7.9.4 11.84-.4.4-.5.89-.1 1.38l.6.6c.9.69 3.53.1 3.53-1.29 0-4.14-.3-8.2-.4-12.34v-1.18c.1.1.1.3.2.4a27.6 27.6 0 0 0 2.21 4.63c.9 1.48 1.3 3.06 1.81 4.64-.2.2-.3.5-.2.7 0 .19.1.29.3.39.6.59 1.92.3 2.52 0 .3-.1.6-.3.8-.4.3-.2.91-.69.7-1.18 0-.1-.1-.2-.1-.3.51-1.28.71-2.56 1.02-3.95.3-1.38.8-2.76 1.3-4.14.1.59.1 1.28.2 1.87.2 2.57 0 5.04 0 7.6 0 .9.1 1.58.2 2.47.1.3.4 1.78.3 1.88-.6.59-.4 1.28.41 1.38.9.2 2.11-.1 2.82-.7 1.2-1.08.6-2.85.4-4.24-.6-2.37-.1-5.03-.1-7.4Zm8.46.69c-.1-1.97-.8-3.85-.8-5.82 0-2.27.2-4.54-.2-6.81-.11-.7-4.14.1-4.04 1.08.3 2.08.2 4.25.2 6.32 0 2.07.5 3.85.71 5.92.3 2.08-.1 4.15.1 6.22.1.99.8 2.77.1 3.56-.4.49 1.51.3 1.61.3.8-.1 1.81-.4 2.32-1 .7-.79.2-2.36.1-3.35-.2-2.27 0-4.34-.1-6.42Zm16.61-3.35c-2.12-2.77-5.94-.8-8.66-1.58-1.41-.4-1.41-2.27-1.41-3.36 0-1.38-.1-2.76-.3-4.15-.1-1.08 0-2.07.8-2.86.1-.1.91-.3.8-.3.41-.1.71-.1 1.12-.1 1.6-.1 4.73.2 4.12 2.47-.3 1 3.63.4 3.93-.59 1.2-4.54-7.45-3.65-9.87-3.06-2.21.6-4.73 1.88-4.83 4.35-.1 1.18.3 2.36.3 3.55.1 1.38-.2 2.76.3 4.15 1.11 2.96 5.64 1.57 7.86 1.77 3.92.3 2.72 5.43 2.82 7.9 0 1.28 1.2 3.45.2 4.44-.6.7-2.02.7-2.82.8-.8.09-2.21.29-2.82-.5-1-1.38.1-3.75-.1-5.43-.2-.99-4.23-.1-4.03.99.3 2.66-1.4 6.12 2.42 6.6 2.52.3 5.23-.19 7.65-.88 1.2-.4 2.32-.99 3.32-1.78 1-.88.7-2.37.4-3.55-.7-2.96.71-6.32-1.2-8.88Zm17.61-.2c-.1-3.75-.7-7.5-.7-11.26 0-1.97-4.03-1.28-4.03.3 0 3.55.5 7.1.7 10.76v.2c-2 0-3.92.2-5.93.2.2-4.64-.6-9.18-.4-13.82 0-.6-3.93-.1-4.03 1.08-.2 4.44.6 8.89.5 13.33l-.3 6.41c0 1.09.2 2.18.3 3.26.1.99.5 2.37.2 3.26-.2.79 3.63.3 3.93-.7.5-1.77-.2-4.04-.4-5.82-.2-1.67 0-3.45.1-5.23 2.01-.1 4.12-.3 6.14 0l.3 4.15c.1 1.18.2 2.27.2 3.45 0 .99.1 2.47-.2 3.46-.8 2.07 3.22 1.87 3.82.4.7-1.88.5-4.15.4-6.13-.2-2.37-.6-4.83-.6-7.3Zm17.12 4.54c-.91-2.77-2.42-5.13-3.63-7.8 1-1.97 2.02-3.85 3.02-5.82.8-1.78 1.51-3.85 3.12-5.04.6-.5.6-.89-.3-.98-.9-.1-2.11.2-2.82.69a11.17 11.17 0 0 0-3.22 4.24c-1 2.07-1.91 4.05-3.02 6.02-.1.1-.2.3-.2.4-.5.3-.8.79-.6 1.28-.81 1.58-1.62 3.06-2.52 4.64-.3-5.53-1-11.06-1.2-16.58 0-1.29-4.04-.5-4.04 1.08.2 6.81 1.21 13.62 1.31 20.53v.1c-.3.3-.2.5.1.6 0 1.77-.1 3.45-.2 5.23-.5.79.5 1.08 1.11 1.08h.1c.7 0 2.62-.4 2.72-1.38.2-2.07.3-4.15.2-6.22a32.57 32.57 0 0 0 4.13-5.62c.8 1.48 1.5 2.96 2.01 4.54.9 2.76 2.31 5.23 3.22 8 .5 1.77 4.53.68 4.03-1.1-.9-2.66-2.32-5.23-3.32-7.9Zm23.95-4.64c-.2-.79-1.4-.89-2.31-.79v-.99c-.1-2.66-.2-5.33-.4-8-.2-2.46-1.61-3.35-4.03-3.25-2.42.1-5.34.5-7.65 1.38a7.06 7.06 0 0 0-4.63 5.63c-.6 2.96.2 6.22.4 9.18.2 3.45.1 7 .1 10.46 0 .6 4.03 0 4.03-1.08v-8.3c0-.79-.1-1.58-.1-2.46 1.4-.6 3.72 0 5.13.1 1.1.1 2.22-.2 3.32-.3 0 2.27.1 4.64.2 6.9 0 1.2.5 3.56-.4 4.55-.4.5 1.51.3 1.61.3.8-.1 1.82-.4 2.32-1.09 1-1.09.5-3.75.4-5.13-.1-1.88-.1-3.85-.1-5.73 1 .2 2.32-.6 2.11-1.38Zm-14.9-.2-.3-3.75c-.2-2.37.1-5.53 2.32-7 .6-.4 1.71-.3 2.41-.4 1.01-.2 2.02-.4 2.92.2 1.21.78.91 3.65.91 4.83 0 1.98.2 3.95.3 6.02-.6.1-1.1.1-1.7.1-2.32-.1-4.64-.4-6.85 0ZM50.11 25.6c.5-.1 1.11-.2 1.51-.5.1-.09.2-.09.3-.19.51-.3 1.01-.79.71-1.38-.5-1.09-.4-2.27-.4-3.36 0-.98-1-1.28-1.81-1.18-.7.1-2.22.6-2.22 1.48 0 .99-.1 1.97.1 2.96 0 .1-.1.2-.1.4-.1.2 0 .4.1.59v.4c.1.19.2.39.4.49.4.3.91.3 1.41.3Z" fill="#fff"/>
</svg>
