<svg width="27" height="35" viewBox="0 0 27 35" fill="none" xmlns="http://www.w3.org/2000/svg">
<path d="M13.6171 0.802734H13.5171L0.0170898 2.20273V26.9027L13.5171 34.9027L26.9171 26.9027V2.20273L13.6171 0.802734ZM25.0171 12.9027L13.5171 6.10273V6.00273H13.4171L13.3171 5.90273V6.00273L1.91709 12.9027V3.90273L13.4171 2.70273L25.0171 3.90273V12.9027ZM13.4171 7.60273L24.9171 14.3027L20.4171 16.9027L13.3171 12.7027V14.1027L19.2171 17.6027L18.3171 18.1027L13.3171 15.1027V16.5027L17.1171 18.8027L16.3171 19.3027L13.3171 17.5027V18.9027L15.2171 20.0027L13.4171 21.1027L2.01709 14.4027L13.4171 7.60273ZM1.91709 15.9027L13.3171 22.7027V23.7027L5.41709 19.0027V20.4027L13.4171 25.2027V26.3027L5.41709 21.6027V23.0027L13.4171 27.8027L21.5171 22.9027V17.7027L24.9171 15.7027V25.7027L13.4171 32.6027L1.91709 25.8027V15.9027Z" fill="#63D1BB"/>
</svg>
