<svg width="103" height="35" viewBox="0 0 103 35" fill="none" xmlns="http://www.w3.org/2000/svg">
  <path d="M20.16 22.25c-.1-2.69-.5-5.27-.5-7.96 0-2.19.4-4.38-.4-6.46 0-.2.1-.5.1-.7.2-1-3.3-.5-3.8.5-.3.3-.5.6-.4 1 0 .1.1.2.1.3-.7 3.17-1.6 6.26-2.6 9.34-.4 1.2-.9 2.29-1.3 3.48-.6-1.1-1.2-2.19-1.6-3.38-1.4-3.38-2.6-6.86-4.3-10.15.2-1.49-3.2-1.39-3.9 0-.8 1.7-.7 3.39-.4 5.18.3 1.98.4 3.97.4 6.06 0 3.98.4 7.86.4 11.84-.4.4-.5.9-.1 1.39.2.2.4.4.6.5 1 .7 3.6.1 3.6-1.3 0-4.07-.3-8.15-.4-12.33v-1.2c.1.1.1.3.2.4.6 1.6 1.3 3.19 2.2 4.68.9 1.5 1.3 3.08 1.8 4.67-.2.2-.3.5-.2.7 0 .2.1.3.3.4.6.5 1.8.3 2.5 0 .3-.1.6-.3.8-.4.3-.2.9-.7.7-1.2 0-.1-.1-.2-.1-.3.5-1.28.7-2.58 1-3.87.3-1.4.8-2.78 1.3-4.08.1.6.1 1.2.2 1.9.2 2.58 0 5.06 0 7.55 0 .8.1 1.6.2 2.49.1.3.4 1.79.3 1.89-.8.5-.6 1.09.2 1.29.9.2 2.1-.1 2.8-.7 1.2-1.1.6-2.78.4-4.17-.5-2.4 0-4.98-.1-7.36Zm8.4.69c-.1-1.99-.8-3.88-.8-5.86 0-2.3.2-4.58-.2-6.87-.1-.7-4.1.1-3.9 1 .3 2.09.2 4.18.2 6.36 0 2 .5 3.88.7 5.87.3 2.09-.1 4.18.1 6.17.1 1 .8 2.68.1 3.58-.4.5 1.5.3 1.6.3.8-.1 1.8-.4 2.3-1 .7-.8.2-2.39.1-3.38-.3-1.99-.1-4.18-.2-6.17Zm16.3-3.28c-2.1-2.78-5.9-.8-8.6-1.5-1.4-.39-1.4-2.28-1.4-3.37 0-1.4-.1-2.69-.3-4.08-.1-1.1 0-2.09.7-2.88.1-.1.9-.3.8-.3.4-.1.7-.1 1.1-.1 1.5-.1 4.6.2 4 2.49-.3.99 3.6.4 3.9-.6 1.2-4.58-7.3-3.68-9.7-3.08-2.2.6-4.6 1.79-4.8 4.37-.1 1.2.3 2.39.3 3.58.1 1.4-.2 2.79.3 4.08 1.1 2.98 5.5 1.59 7.8 1.69 3.8.3 2.7 5.47 2.7 7.86 0 1.29 1.2 3.38.2 4.47-.6.7-2 .7-2.8.8-.8.1-2.2.3-2.7-.5-1-1.4.1-3.78-.1-5.37-.1-.9-4.1-.1-3.9 1 .3 2.58-1.4 6.06 2.4 6.56 2.4.3 5.2-.2 7.5-.9 1.2-.4 2.3-.9 3.2-1.79 1-.9.7-2.29.4-3.48-.5-3.08.9-6.46-1-8.95Zm17.4-.2c-.1-3.78-.7-7.46-.7-11.24 0-1.98-4-1.29-4 .3 0 3.58.5 7.16.7 10.74v.2c-1.9 0-3.9.2-5.9.2.2-4.57-.6-9.15-.4-13.82 0-.6-3.9-.1-3.9 1-.2 4.47.6 8.84.5 13.32l-.3 6.36c0 1.1.2 2.19.3 3.28.1 1 .5 2.3.2 3.29-.2.8 3.6.3 3.9-.7.5-1.79-.2-3.98-.4-5.77-.2-1.69 0-3.48.1-5.17 2-.1 4.1-.3 6.1 0l.3 4.08c.1 1.2.2 2.29.2 3.48 0 1 .1 2.48-.2 3.48-.8 2.09 3.1 1.89 3.7.4.7-1.9.5-4.18.4-6.17-.2-2.48-.6-4.87-.6-7.26Zm16.9 4.38c-.9-2.79-2.4-5.17-3.6-7.76 1-1.89 2-3.88 2.9-5.87.8-1.79 1.4-3.78 3.1-5.07.6-.4.6-.9-.3-1-.9-.1-2.1.2-2.8.7a12.2 12.2 0 0 0-3.1 4.38c-.9 2.09-1.9 4.08-2.9 6.07-.1.1-.1.3-.2.4-.5.3-.8.79-.6 1.29a66.9 66.9 0 0 1-2.5 4.57c-.3-5.47-1-11.04-1.2-16.5 0-1.3-4-.5-3.9.99.2 6.86 1.2 13.62 1.3 20.48v.1c-.3.3-.2.5.1.6 0 1.79-.1 3.48-.2 5.27-.5.7.5 1.1 1.1 1.1h.1c.7 0 2.6-.3 2.7-1.4.2-2.09.3-4.18.2-6.26 1.6-1.7 2.9-3.58 4.1-5.57a26.4 26.4 0 0 1 2 4.57c.9 2.69 2.3 5.27 3.1 7.96.5 1.79 4.5.7 3.9-1-1-2.78-2.4-5.27-3.3-8.05Zm23.5-4.58c-.2-.8-1.4-.8-2.3-.8v-.99c-.1-2.68-.2-5.37-.4-7.95-.2-2.49-1.6-3.28-4-3.18-2.4.1-5.2.5-7.5 1.39-2.6 1-4.1 2.88-4.6 5.67-.5 2.98.2 6.16.4 9.15.2 3.48.1 6.96.1 10.44 0 .6 3.9 0 3.9-1v-8.25c0-.8-.1-1.6-.1-2.39 1.4-.6 3.7 0 5.1.1 1.1.1 2.2-.2 3.2-.3 0 2.29.1 4.58.2 6.86 0 1.2.5 3.49-.4 4.48-.4.5 1.5.3 1.6.3.8-.1 1.8-.4 2.3-1 .9-1.09.5-3.78.4-5.07-.1-1.89-.1-3.78-.1-5.67 1.1-.2 2.4-.9 2.2-1.79Zm-14.6-.1-.3-3.68c-.2-2.28.1-5.56 2.3-6.96.6-.4 1.7-.3 2.4-.4 1-.2 2-.4 2.8.2 1.2.8.9 3.68.9 4.88 0 1.99.2 3.98.3 5.96-.6.1-1.1.1-1.7.1-2.3-.2-4.6-.6-6.7-.1ZM25.16 7.53c.5-.1 1-.2 1.5-.5l.2-.2c.5-.3 1-.8.7-1.39-.5-1.1-.4-2.19-.4-3.38 0-1-1-1.2-1.8-1.2-.7.1-2.2.6-2.2 1.5 0 1-.1 1.99.1 2.98 0 .1-.1.2-.1.4-.1.2 0 .4.1.6v.4c.1.2.2.39.4.49.6.3 1.1.3 1.5.3Z" fill="#000"/>
</svg>
