<svg width="22" height="19" viewBox="0 0 22 19" fill="none" xmlns="http://www.w3.org/2000/svg">
  <path opacity=".2" d="M20.47 7.56h-3.55L13.47 1.1c-.2-.39-.6-.48-1.01-.3-.4.2-.51.58-.3.96l3.14 5.81H6.07l3.14-5.8c.2-.39 0-.77-.3-.96a.82.82 0 0 0-1.02.29L4.44 7.56H1.1c-.41 0-.82.29-.82.76 0 .38.3.77.82.77h.2l.91 2.85c-.2.1-.3.29-.3.57 0 .38.3.67.7.67l1.73 5.52h12.89l1.72-5.52c.4 0 .71-.29.71-.67 0-.19-.1-.47-.3-.57l.9-2.85h.21c.4 0 .81-.3.81-.77 0-.47-.4-.76-.8-.76Zm-4.56 9.62H5.36l-1.22-4.1h13.09l-1.32 4.1Zm1.62-5.52H3.63l-.81-2.67h15.52l-.81 2.67Z" fill="#000"/>
</svg>
