<svg xmlns="http://www.w3.org/2000/svg">
  <style>:root svg:not(:target) { display: none }</style>

  <svg viewBox="0 0 103 35" id="logo-footer">
    <path d="M20.16 22.25c-.1-2.69-.5-5.27-.5-7.96 0-2.19.4-4.38-.4-6.46 0-.2.1-.5.1-.7.2-1-3.3-.5-3.8.5-.3.3-.5.6-.4 1 0 .1.1.2.1.3-.7 3.17-1.6 6.26-2.6 9.34-.4 1.2-.9 2.29-1.3 3.48-.6-1.1-1.2-2.19-1.6-3.38-1.4-3.38-2.6-6.86-4.3-10.15.2-1.49-3.2-1.39-3.9 0-.8 1.7-.7 3.39-.4 5.18.3 1.98.4 3.97.4 6.06 0 3.98.4 7.86.4 11.84-.4.4-.5.9-.1 1.39.2.2.4.4.6.5 1 .7 3.6.1 3.6-1.3 0-4.07-.3-8.15-.4-12.33v-1.2c.1.1.1.3.2.4.6 1.6 1.3 3.19 2.2 4.68.9 1.5 1.3 3.08 1.8 4.67-.2.2-.3.5-.2.7 0 .2.1.3.3.4.6.5 1.8.3 2.5 0 .3-.1.6-.3.8-.4.3-.2.9-.7.7-1.2 0-.1-.1-.2-.1-.3.5-1.28.7-2.58 1-3.87.3-1.4.8-2.78 1.3-4.08.1.6.1 1.2.2 1.9.2 2.58 0 5.06 0 7.55 0 .8.1 1.6.2 2.49.1.3.4 1.79.3 1.89-.8.5-.6 1.09.2 1.29.9.2 2.1-.1 2.8-.7 1.2-1.1.6-2.78.4-4.17-.5-2.4 0-4.98-.1-7.36Zm8.4.69c-.1-1.99-.8-3.88-.8-5.86 0-2.3.2-4.58-.2-6.87-.1-.7-4.1.1-3.9 1 .3 2.09.2 4.18.2 6.36 0 2 .5 3.88.7 5.87.3 2.09-.1 4.18.1 6.17.1 1 .8 2.68.1 3.58-.4.5 1.5.3 1.6.3.8-.1 1.8-.4 2.3-1 .7-.8.2-2.39.1-3.38-.3-1.99-.1-4.18-.2-6.17Zm16.3-3.28c-2.1-2.78-5.9-.8-8.6-1.5-1.4-.39-1.4-2.28-1.4-3.37 0-1.4-.1-2.69-.3-4.08-.1-1.1 0-2.09.7-2.88.1-.1.9-.3.8-.3.4-.1.7-.1 1.1-.1 1.5-.1 4.6.2 4 2.49-.3.99 3.6.4 3.9-.6 1.2-4.58-7.3-3.68-9.7-3.08-2.2.6-4.6 1.79-4.8 4.37-.1 1.2.3 2.39.3 3.58.1 1.4-.2 2.79.3 4.08 1.1 2.98 5.5 1.59 7.8 1.69 3.8.3 2.7 5.47 2.7 7.86 0 1.29 1.2 3.38.2 4.47-.6.7-2 .7-2.8.8-.8.1-2.2.3-2.7-.5-1-1.4.1-3.78-.1-5.37-.1-.9-4.1-.1-3.9 1 .3 2.58-1.4 6.06 2.4 6.56 2.4.3 5.2-.2 7.5-.9 1.2-.4 2.3-.9 3.2-1.79 1-.9.7-2.29.4-3.48-.5-3.08.9-6.46-1-8.95Zm17.4-.2c-.1-3.78-.7-7.46-.7-11.24 0-1.98-4-1.29-4 .3 0 3.58.5 7.16.7 10.74v.2c-1.9 0-3.9.2-5.9.2.2-4.57-.6-9.15-.4-13.82 0-.6-3.9-.1-3.9 1-.2 4.47.6 8.84.5 13.32l-.3 6.36c0 1.1.2 2.19.3 3.28.1 1 .5 2.3.2 3.29-.2.8 3.6.3 3.9-.7.5-1.79-.2-3.98-.4-5.77-.2-1.69 0-3.48.1-5.17 2-.1 4.1-.3 6.1 0l.3 4.08c.1 1.2.2 2.29.2 3.48 0 1 .1 2.48-.2 3.48-.8 2.09 3.1 1.89 3.7.4.7-1.9.5-4.18.4-6.17-.2-2.48-.6-4.87-.6-7.26Zm16.9 4.38c-.9-2.79-2.4-5.17-3.6-7.76 1-1.89 2-3.88 2.9-5.87.8-1.79 1.4-3.78 3.1-5.07.6-.4.6-.9-.3-1-.9-.1-2.1.2-2.8.7a12.2 12.2 0 0 0-3.1 4.38c-.9 2.09-1.9 4.08-2.9 6.07-.1.1-.1.3-.2.4-.5.3-.8.79-.6 1.29a66.9 66.9 0 0 1-2.5 4.57c-.3-5.47-1-11.04-1.2-16.5 0-1.3-4-.5-3.9.99.2 6.86 1.2 13.62 1.3 20.48v.1c-.3.3-.2.5.1.6 0 1.79-.1 3.48-.2 5.27-.5.7.5 1.1 1.1 1.1h.1c.7 0 2.6-.3 2.7-1.4.2-2.09.3-4.18.2-6.26 1.6-1.7 2.9-3.58 4.1-5.57a26.4 26.4 0 0 1 2 4.57c.9 2.69 2.3 5.27 3.1 7.96.5 1.79 4.5.7 3.9-1-1-2.78-2.4-5.27-3.3-8.05Zm23.5-4.58c-.2-.8-1.4-.8-2.3-.8v-.99c-.1-2.68-.2-5.37-.4-7.95-.2-2.49-1.6-3.28-4-3.18-2.4.1-5.2.5-7.5 1.39-2.6 1-4.1 2.88-4.6 5.67-.5 2.98.2 6.16.4 9.15.2 3.48.1 6.96.1 10.44 0 .6 3.9 0 3.9-1v-8.25c0-.8-.1-1.6-.1-2.39 1.4-.6 3.7 0 5.1.1 1.1.1 2.2-.2 3.2-.3 0 2.29.1 4.58.2 6.86 0 1.2.5 3.49-.4 4.48-.4.5 1.5.3 1.6.3.8-.1 1.8-.4 2.3-1 .9-1.09.5-3.78.4-5.07-.1-1.89-.1-3.78-.1-5.67 1.1-.2 2.4-.9 2.2-1.79Zm-14.6-.1-.3-3.68c-.2-2.28.1-5.56 2.3-6.96.6-.4 1.7-.3 2.4-.4 1-.2 2-.4 2.8.2 1.2.8.9 3.68.9 4.88 0 1.99.2 3.98.3 5.96-.6.1-1.1.1-1.7.1-2.3-.2-4.6-.6-6.7-.1ZM25.16 7.53c.5-.1 1-.2 1.5-.5l.2-.2c.5-.3 1-.8.7-1.39-.5-1.1-.4-2.19-.4-3.38 0-1-1-1.2-1.8-1.2-.7.1-2.2.6-2.2 1.5 0 1-.1 1.99.1 2.98 0 .1-.1.2-.1.4-.1.2 0 .4.1.6v.4c.1.2.2.39.4.49.6.3 1.1.3 1.5.3Z" fill="#000"/>
  </svg>

  <svg viewBox="0 0 19 19" id="search">
    <path d="m18.32 16.76-3.48-3.48a7.63 7.63 0 0 0 1.54-4.7C16.38 4.18 12.9.7 8.5.7A7.81 7.81 0 0 0 .63 8.58a7.8 7.8 0 0 0 7.87 7.87c1.74 0 3.38-.6 4.7-1.53l3.48 3.48c.2.2.41.3.82.3.62 0 1.13-.5 1.13-1.12 0-.2-.1-.51-.31-.82ZM2.88 8.58A5.67 5.67 0 0 1 8.5 2.95a5.67 5.67 0 0 1 5.63 5.63A5.67 5.67 0 0 1 8.5 14.2a5.67 5.67 0 0 1-5.62-5.62Z" fill="#000"/>
  </svg>

  <svg viewBox="0 0 22 19" id="shopping-cart">
    <path d="M20.47 7.56h-3.55L13.47 1.1c-.2-.39-.6-.48-1.01-.3-.4.2-.51.58-.3.96l3.14 5.81H6.07l3.14-5.8c.2-.39 0-.77-.3-.96a.82.82 0 0 0-1.02.29L4.44 7.56H1.1c-.41 0-.82.29-.82.76 0 .38.3.77.82.77h.2l.91 2.85c-.2.1-.3.29-.3.57 0 .38.3.67.7.67l1.73 5.52h12.89l1.72-5.52c.4 0 .71-.29.71-.67 0-.19-.1-.47-.3-.57l.9-2.85h.21c.4 0 .81-.3.81-.77 0-.47-.4-.76-.8-.76Zm-4.56 9.62H5.36l-1.22-4.1h13.09l-1.32 4.1Zm1.62-5.52H3.63l-.81-2.67h15.52l-.81 2.67Z" fill="#000"/>
  </svg>

  <svg viewBox="0 0 36 35" id="clew">
    <path d="M0.692033 14.9263C0.284622 17.0038 0.284622 19.0814 0.692033 21.1589L4.86799 17.9931L0.692033 14.9263Z" fill="#63D1BB"/>
    <path d="M25.2385 2.55963C20.3496 0.38314 14.6458 0.38314 9.65503 2.95535L17.294 8.49551L25.2385 2.55963Z" fill="#63D1BB"/>
    <path d="M34.9146 14.0356L30.0256 17.6961L35.0164 21.3566C35.5257 18.9822 35.5257 16.41 34.9146 14.0356Z" fill="#63D1BB"/>
    <path d="M9.75684 33.0306C14.6458 35.5039 20.6551 35.7017 25.7477 33.1295L17.4976 27.0947L9.75684 33.0306Z" fill="#63D1BB"/>
    <path d="M8.43291 15.2222L2.11804 10.6714C1.81249 11.3639 1.50693 12.0564 1.30322 12.7489L6.70142 16.7062L8.43291 15.2222Z" fill="#63D1BB"/>
    <path d="M19.3311 25.8084L27.7848 31.9421C28.0904 31.7443 28.3959 31.5464 28.5997 31.3485C28.9052 31.1507 29.2108 30.8539 29.5163 30.5571L21.0625 24.4233L19.3311 25.8084Z" fill="#63D1BB"/>
    <path d="M11.9977 12.5516L4.46056 7.11035C3.9513 7.60501 3.54389 8.1986 3.13647 8.79218L10.1643 13.9366L11.9977 12.5516Z" fill="#63D1BB"/>
    <path d="M22.896 23.137L31.1461 29.1718C31.6553 28.6771 32.0627 28.0836 32.4701 27.49L24.6275 21.752L22.896 23.137Z" fill="#63D1BB"/>
    <path d="M15.5624 9.88059L7.71978 4.14258C7.51607 4.24151 7.31237 4.43937 7.10866 4.5383C6.70125 4.8351 6.29384 5.13189 5.98828 5.52762L13.8309 11.1667L15.5624 9.88059Z" fill="#63D1BB"/>
    <path d="M26.4607 20.3675L33.5904 25.5119C33.8959 24.8194 34.2015 24.2258 34.5071 23.5333L28.294 18.9824L26.4607 20.3675Z" fill="#63D1BB"/>
    <path d="M27.2757 3.64795L1.30322 23.3353C1.50693 24.0278 1.81249 24.7203 2.11804 25.4128L29.109 4.93406C28.5997 4.4394 27.9886 4.04367 27.2757 3.64795Z" fill="#63D1BB"/>
    <path d="M31.6552 7.50621C31.3496 7.11049 31.0441 6.71476 30.7385 6.41797L3.23828 27.1935C3.44199 27.6882 3.74754 28.0839 4.0531 28.3807C4.15496 28.5786 4.35866 28.7764 4.46051 28.8754L32.1644 8.0998C31.9607 7.90194 31.8589 7.70408 31.6552 7.50621Z" fill="#63D1BB"/>
    <path d="M33.2848 9.88037L6.09009 30.4581C6.59935 30.9527 7.21047 31.4474 7.82158 31.8431L34.3033 11.859C33.9977 11.1665 33.6922 10.474 33.2848 9.88037Z" fill="#63D1BB"/>
  </svg>

  <svg viewBox="0 0 34 39" id="flower">
    <path d="M16.7563 38.2734C25.8313 38.2734 33.2563 30.9186 33.2563 21.9294C24.1813 21.9294 16.7563 29.182 16.7563 38.2734ZM5.0001 16.924C5.0001 19.4777 7.0626 21.4186 9.5376 21.4186C10.4657 21.4186 11.3938 21.1121 12.1157 20.6014V20.9078C12.1157 23.4616 14.1782 25.4025 16.6532 25.4025C19.2313 25.4025 21.1907 23.3595 21.1907 20.9078V20.6014C21.9126 21.1121 22.8407 21.4186 23.7688 21.4186C26.347 21.4186 28.3063 19.3756 28.3063 16.924C28.3063 15.0853 27.2751 13.553 25.7282 12.838C27.2751 12.1229 28.3063 10.5906 28.3063 8.75193C28.3063 6.19817 26.2438 4.25731 23.7688 4.25731C22.8407 4.25731 21.9126 4.56376 21.1907 5.07451V4.76806C21.1907 2.2143 19.1282 0.273438 16.6532 0.273438C14.0751 0.273438 12.1157 2.31645 12.1157 4.76806V5.07451C11.3938 4.56376 10.4657 4.25731 9.5376 4.25731C6.95947 4.25731 5.0001 6.30032 5.0001 8.75193C5.0001 10.5906 6.03135 12.1229 7.57822 12.838C6.13447 13.553 5.0001 15.0853 5.0001 16.924ZM16.7563 8.24118C19.3345 8.24118 21.2938 10.2842 21.2938 12.7358C21.2938 15.2896 19.2313 17.2304 16.7563 17.2304C14.1782 17.2304 12.2188 15.1874 12.2188 12.7358C12.2188 10.2842 14.1782 8.24118 16.7563 8.24118ZM0.256348 21.9294C0.256348 30.9186 7.68135 38.2734 16.7563 38.2734C16.7563 29.182 9.33135 21.9294 0.256348 21.9294Z" fill="#63D1BB"/>
  </svg>

  <svg viewBox="0 0 48 28" id="ruble">
    <path d="M43.9767 0.273438H4.84363C2.62475 0.273438 0.910156 1.95476 0.910156 4.13058V23.4163C0.910156 25.5921 2.62475 27.2734 4.84363 27.2734H43.9767C46.1956 27.2734 47.9102 25.5921 47.9102 23.4163V4.13058C47.9102 2.05366 46.0947 0.273438 43.9767 0.273438ZM3.93591 24.9987V3.04267H44.481V24.9987H3.93591Z" fill="#63D1BB"/>
    <path d="M7.86938 21.1417H40.5475V6.8999H7.86938V21.1417ZM24.4102 8.77902C27.3351 8.77902 29.7557 11.1526 29.7557 14.0208C29.7557 16.8889 27.3351 19.2625 24.4102 19.2625C21.4853 19.2625 19.0647 16.8889 19.0647 14.0208C19.0647 11.0537 21.4853 8.77902 24.4102 8.77902Z" fill="#63D1BB"/>
  </svg>

  <svg viewBox="0 0 34 33" id="present">
    <path d="M3.90204 32.7231H16.5167V18.9947H3.90204V32.7231ZM32.2599 9.4145H24.8929C25.3974 9.11821 25.902 8.92067 26.3057 8.62438C27.9204 7.53796 28.7277 6.05648 28.7277 4.67376C28.7277 3.48858 28.1222 2.50091 27.3149 1.80955C26.5075 1.1182 25.3974 0.723145 24.2873 0.723145C23.0763 0.723145 21.8653 1.1182 20.9571 1.80955C19.4433 2.79721 18.3332 4.2787 17.5259 5.85894C17.5259 5.95771 17.425 6.05647 17.425 6.05647C17.1222 5.46388 16.8195 4.87128 16.4158 4.27869C15.7094 3.29104 14.902 2.40215 13.8929 1.80955C12.8837 1.21696 11.7736 0.723145 10.5626 0.723145C9.35157 0.723145 8.24148 1.21697 7.33322 2.0071C6.52588 2.79722 5.92039 3.88363 5.92039 5.06882C5.92039 5.76017 6.12221 6.55029 6.52588 7.24165C7.13139 8.13054 7.93873 8.82191 9.14974 9.4145H2.48918C1.58092 9.4145 0.874512 10.1059 0.874512 10.9947V16.8219H16.4158V9.4145H18.3332V16.8219H33.8745V10.9947C33.8745 10.1059 33.1681 9.4145 32.2599 9.4145ZM9.75524 7.1429C9.14973 6.74783 8.74607 6.35277 8.54423 6.05647C8.3424 5.66141 8.24148 5.36511 8.24148 5.06882C8.24148 4.57499 8.44332 4.08116 8.94791 3.58734C9.35158 3.19227 9.95708 2.89598 10.5626 2.89598C11.269 2.89598 11.9754 3.09351 12.5809 3.58734C13.5901 4.27869 14.5993 5.36511 15.2048 6.74783C15.5075 7.43918 15.8103 8.13055 16.0121 8.8219C12.8837 8.52561 10.8653 7.83425 9.75524 7.1429ZM20.3516 5.56264C20.9571 4.77252 21.5626 4.08117 22.269 3.68611C22.9754 3.19228 23.6818 2.99475 24.2873 2.99475C24.8929 2.99475 25.3974 3.19228 25.8011 3.48858C26.2048 3.78488 26.4066 4.17993 26.4066 4.67376C26.4066 5.16759 26.1039 5.9577 24.8929 6.74783C23.7828 7.53795 21.7644 8.42684 18.7369 9.01943C19.0396 7.83425 19.6452 6.5503 20.3516 5.56264ZM18.3332 32.7231H30.9479V18.9947H18.3332V32.7231Z" fill="#63D1BB"/>
  </svg>

  <svg viewBox="0 0 56 24" id="support">
    <path d="M41.6852 6.47316C38.0455 5.48178 33.7992 4.7878 29.1485 4.7878C26.2165 4.7878 23.5878 4.98609 21.3635 5.38264L14.4886 0.723145H0.839665L6.70362 6.86971H15.1962C10.5455 8.45591 8.32124 10.3395 8.32124 10.3395V14.1068C8.32124 14.1068 10.6466 15.9904 15.2974 17.5766H6.60248L0.738525 23.7231H14.3874L21.2624 19.0637C23.5878 19.4602 26.1154 19.6585 29.0473 19.6585C33.597 19.6585 37.8433 18.9645 41.5841 17.9732C40.3709 16.1887 39.6631 14.305 39.6631 12.124C39.7642 10.1412 40.5731 8.25764 41.6852 6.47316Z" fill="#63D1BB"/>
    <path d="M45.2237 7.46436C43.9094 9.05056 43.2017 10.6368 43.2017 12.223C43.2017 13.8092 43.9094 15.3954 45.2237 16.9816C51.6943 14.8006 55.7384 12.223 55.7384 12.223C55.7384 12.223 51.6943 9.64539 45.2237 7.46436Z" fill="#63D1BB"/>
  </svg>

  <svg viewBox="0 0 35 28" id="heart">
    <path d="M34.2563 8.93109C34.2563 4.26922 30.2382 0.481445 25.2927 0.481445C21.7897 0.481445 18.8018 2.42389 17.2563 5.14332C15.8139 2.42389 12.723 0.481445 9.21999 0.481445C4.27453 0.481445 0.256348 4.26922 0.256348 8.93109C0.256348 17.7692 15.4018 27.4814 17.2563 27.4814C19.2139 27.4814 34.2563 17.8663 34.2563 8.93109Z" fill="#63D1BB"/>
  </svg>

  <svg viewBox="0 0 51 27" id="arrow">
    <path d="M0.00390625 11.0103H42.3039L34.2039 2.81025L37.0039 0.0102539L50.0039 13.0103L37.0039 26.0103L34.2039 23.2103L42.3039 15.0103H0.00390625V11.0103Z" fill="black"/>
  </svg>

  <svg viewBox="0 0 47 81" id="flag">
    <path d="M7.76611 3.86207V42.3814L47 23.0722L7.76611 3.86207ZM0 80.9007V0.000244141H3.83261V80.9007H0Z" fill="#63D1BB"/>
    <path d="M3.83262 0.0998535H0V81.0004H3.83262V0.0998535Z" fill="#231F20"/>
  </svg>

  <svg viewBox="0 0 27 35" id="htmlacademy">
    <path d="M13.6171 0.802734H13.5171L0.0170898 2.20273V26.9027L13.5171 34.9027L26.9171 26.9027V2.20273L13.6171 0.802734ZM25.0171 12.9027L13.5171 6.10273V6.00273H13.4171L13.3171 5.90273V6.00273L1.91709 12.9027V3.90273L13.4171 2.70273L25.0171 3.90273V12.9027ZM13.4171 7.60273L24.9171 14.3027L20.4171 16.9027L13.3171 12.7027V14.1027L19.2171 17.6027L18.3171 18.1027L13.3171 15.1027V16.5027L17.1171 18.8027L16.3171 19.3027L13.3171 17.5027V18.9027L15.2171 20.0027L13.4171 21.1027L2.01709 14.4027L13.4171 7.60273ZM1.91709 15.9027L13.3171 22.7027V23.7027L5.41709 19.0027V20.4027L13.4171 25.2027V26.3027L5.41709 21.6027V23.0027L13.4171 27.8027L21.5171 22.9027V17.7027L24.9171 15.7027V25.7027L13.4171 32.6027L1.91709 25.8027V15.9027Z" fill="#63D1BB"/>
  </svg>

  <svg viewBox="0 0 29 23" id="telegram">
    <path fill-rule="evenodd" clip-rule="evenodd" d="M23.9391 4.05964C24.1176 4.20895 24.2038 4.44164 24.1655 4.67122L21.5393 20.4281C21.5027 20.6479 21.3571 20.8341 21.1527 20.9226C20.9483 21.0112 20.7129 20.99 20.5275 20.8665L12.6491 15.6142C12.496 15.5121 12.3927 15.3505 12.3645 15.1686C12.3363 14.9868 12.3857 14.8014 12.5006 14.6578L15.1112 11.3945L10.7513 14.3011C10.5553 14.4318 10.3042 14.4474 10.0935 14.342L4.8412 11.7159C4.60596 11.5983 4.46362 11.3516 4.47947 11.0891C4.49532 10.8266 4.66632 10.5988 4.914 10.5104L23.2971 3.945C23.5163 3.86671 23.7605 3.91033 23.9391 4.05964ZM6.80453 11.2295L10.34 12.9972L17.9014 7.95624C18.1707 7.77668 18.5308 7.82023 18.7495 8.05884C18.9683 8.29744 18.9805 8.65988 18.7782 8.91265L13.9733 14.9188L20.4111 19.2107L22.6866 5.55732L6.80453 11.2295Z" fill="#231F20"/>
  </svg>

  <svg viewBox="0 0 29 23" id="vkontakte">
    <g clip-path="url(#clip0_38790_1700)">
    <path d="M1.43481 6.14149C1.43481 5.28646 1.94992 4.82542 2.98012 4.75836L6.94997 4.7835C7.2164 4.7835 7.39402 4.90924 7.48283 5.16072C7.89136 6.41812 8.34874 7.50367 8.85496 8.41738C9.36118 9.33109 10.0228 10.3831 10.8399 11.5734C10.9109 11.7243 11.0264 11.7998 11.1862 11.7998C11.3106 11.7998 11.4083 11.7411 11.4793 11.6237L11.5592 11.3471L11.5859 6.99652C11.5859 6.69475 11.5104 6.49356 11.3594 6.39297C11.2084 6.29238 10.9287 6.21694 10.5202 6.16664C10.2004 6.11634 10.0406 5.93193 10.0406 5.61339C10.0406 5.54632 10.0495 5.49603 10.0672 5.4625C10.4402 4.37275 11.506 3.82788 13.2644 3.82788L14.7564 3.80273C15.4314 3.80273 15.9909 3.962 16.435 4.28055C16.879 4.59909 17.101 5.10204 17.101 5.78942V11.498C17.2254 11.5818 17.3408 11.6237 17.4474 11.6237C17.7138 11.6237 17.9447 11.4729 18.1401 11.1711C20.094 8.58922 21.1508 6.8624 21.3107 5.9906C21.3107 5.97384 21.3284 5.93193 21.364 5.86486C21.4883 5.61339 21.6926 5.39544 21.9768 5.21102C22.261 5.0266 22.5096 4.90086 22.7228 4.8338C22.7938 4.80027 22.8737 4.7835 22.9626 4.7835H27.0923L27.3587 4.80865C27.7139 4.80865 27.9892 4.96792 28.1846 5.28646C28.2557 5.38705 28.3045 5.49603 28.3312 5.61339C28.3578 5.73074 28.3756 5.8481 28.3845 5.96546C28.3933 6.08281 28.3978 6.14987 28.3978 6.16664V6.34268C28.2734 7.03005 27.9582 7.76353 27.4519 8.54312C26.9457 9.3227 26.3018 10.1652 25.5203 11.0705C24.7388 11.9758 24.2503 12.571 24.0549 12.856C23.8951 13.0572 23.8151 13.2416 23.8151 13.4092C23.8151 13.5434 23.8862 13.6943 24.0283 13.8619L27.9182 18.4891C28.1313 18.7574 28.2379 19.0508 28.2379 19.3693C28.2379 19.7549 28.0781 20.0734 27.7583 20.3249C27.4386 20.5764 27.0567 20.7189 26.6127 20.7524L26.1597 20.7776H22.11C22.0922 20.7776 22.0567 20.7818 22.0034 20.7902C21.9501 20.7985 21.9146 20.8027 21.8968 20.8027C21.5061 20.8027 21.1419 20.6435 20.8045 20.3249C20.6801 20.1908 19.8453 19.2017 18.3 17.3575C18.2112 17.2401 18.0868 17.1311 17.927 17.0305C17.8559 17.2988 17.7627 17.6844 17.6472 18.1874C17.5318 18.6903 17.4474 19.0508 17.3941 19.2687L17.3142 19.6962C17.1366 20.283 16.7636 20.6351 16.1952 20.7524L15.8222 20.7776H13.2111C11.7369 20.7776 10.267 20.1405 8.80167 18.8663C7.33629 17.5922 6.01745 15.945 4.84515 13.9248C3.67285 11.9046 2.58047 9.55323 1.56803 6.87078C1.47922 6.65283 1.43481 6.40974 1.43481 6.14149ZM17.4474 12.6548C17.0744 12.6548 16.7369 12.5584 16.435 12.3656C16.133 12.1728 15.982 11.9088 15.982 11.5734V5.78942C15.982 5.45412 15.8932 5.21521 15.7156 5.0727C15.538 4.9302 15.2271 4.85895 14.7831 4.85895L13.2644 4.90924C12.5006 4.90924 11.9234 5.03498 11.5326 5.28646C12.3141 5.63853 12.7049 6.20855 12.7049 6.99652V11.4226C12.6694 11.8417 12.4918 12.1896 12.172 12.4662C11.8523 12.7428 11.4971 12.8811 11.1063 12.8811C10.5734 12.8811 10.1649 12.638 9.88072 12.1518C8.49527 10.1735 7.46507 8.29583 6.79011 6.51871L6.55032 5.86486L3.00677 5.83972C2.77586 5.83972 2.64708 5.85229 2.62044 5.87744C2.5938 5.90259 2.58047 5.97384 2.58047 6.0912C2.58047 6.24208 2.59824 6.40135 2.63376 6.56901L3.19327 7.97729C4.68529 11.6154 6.30609 14.4822 8.05566 16.5779C9.80523 18.6735 11.5237 19.7214 13.2111 19.7214H15.8755C15.982 19.7214 16.062 19.692 16.1152 19.6334C16.1685 19.5747 16.2129 19.4615 16.2485 19.2939L16.3017 19.0424L16.808 16.8294C16.9501 16.5276 17.0744 16.3264 17.181 16.2258C17.3764 16.0414 17.6073 15.9492 17.8737 15.9492C18.3 15.9492 18.7352 16.1923 19.1792 16.6785L21.4439 19.3945C21.586 19.6124 21.737 19.7214 21.8968 19.7214H26.293C26.8258 19.7214 27.0923 19.5956 27.0923 19.3442C27.0923 19.2603 27.0656 19.1765 27.0123 19.0927L23.1491 14.5409C22.8471 14.1888 22.6961 13.8116 22.6961 13.4092C22.6961 13.0069 22.8382 12.6213 23.1224 12.2524C23.3533 11.9171 23.8018 11.3597 24.4679 10.5801C25.134 9.80052 25.7157 9.07123 26.213 8.39223C26.7104 7.71324 27.039 7.09711 27.1988 6.54386L27.2788 6.21694C27.261 6.18341 27.2521 6.12892 27.2521 6.05347C27.2521 5.97803 27.2432 5.91516 27.2255 5.86486H23.0425C22.7761 5.96546 22.5629 6.11634 22.403 6.31753L22.2432 6.79534C21.7991 7.95214 20.6357 9.73765 18.7529 12.1518C18.3799 12.4872 17.9447 12.6548 17.4474 12.6548Z" fill="#231F20"/>
    </g>
    <defs>
    <clipPath id="clip0_38790_1700">
    <rect width="28" height="22" fill="white" transform="translate(0.434814 0.802734)"/>
    </clipPath>
    </defs>
  </svg>

  <svg viewBox="0 0 29 23" id="youtube">
    <path d="M17.9627 10.8274L12.7264 7.33651C12.6278 7.27157 12.5134 7.23452 12.3955 7.22926C12.2776 7.22401 12.1604 7.25075 12.0564 7.30665C11.9524 7.36256 11.8655 7.44554 11.8048 7.54682C11.7442 7.6481 11.712 7.7639 11.7118 7.88196V14.8638C11.7119 14.9828 11.7445 15.0995 11.806 15.2014C11.8675 15.3032 11.9557 15.3864 12.0609 15.442C12.1643 15.4977 12.2809 15.5242 12.3982 15.5184C12.5155 15.5126 12.629 15.4749 12.7264 15.4092L17.9627 11.9183C18.0527 11.8586 18.1266 11.7776 18.1777 11.6824C18.2287 11.5872 18.2555 11.4809 18.2555 11.3729C18.2555 11.2649 18.2287 11.1585 18.1777 11.0633C18.1266 10.9682 18.0527 10.8871 17.9627 10.8274ZM13.0209 13.642V9.10378L16.4245 11.3729L13.0209 13.642ZM25.5009 5.07832C25.406 4.71014 25.2249 4.36977 24.9727 4.08527C24.7204 3.80077 24.4042 3.58028 24.05 3.44196C20.33 2.01287 14.3627 2.03469 14.1118 2.03469C13.8609 2.03469 7.89363 2.01287 4.17363 3.44196C3.81946 3.58028 3.50322 3.80077 3.25096 4.08527C2.99871 4.36977 2.81765 4.71014 2.72273 5.07832C2.43909 6.14742 2.11182 8.11105 2.11182 11.3729C2.11182 14.6347 2.43909 16.5983 2.72273 17.6674C2.81765 18.0356 2.99871 18.376 3.25096 18.6605C3.50322 18.945 3.81946 19.1655 4.17363 19.3038C7.89363 20.7329 13.8609 20.7111 14.1118 20.7111H14.1882C14.9409 20.7111 20.5045 20.6674 24.05 19.3038C24.4042 19.1655 24.7204 18.945 24.9727 18.6605C25.2249 18.376 25.406 18.0356 25.5009 17.6674C25.7845 16.5983 26.1118 14.6347 26.1118 11.3729C26.1118 8.11105 25.7845 6.14742 25.5009 5.07832ZM24.2355 17.3401C24.1925 17.5066 24.1109 17.6606 23.9971 17.7895C23.8834 17.9184 23.7407 18.0186 23.5809 18.082C20.09 19.4238 14.1773 19.402 14.1118 19.402C14.0464 19.402 8.13363 19.4238 4.64273 18.082C4.48289 18.0186 4.34028 17.9184 4.22653 17.7895C4.11278 17.6606 4.03111 17.5066 3.98818 17.3401C3.72636 16.3365 3.42091 14.4929 3.42091 11.3729C3.42091 8.25287 3.72636 6.40923 3.98818 5.4056C4.03111 5.23912 4.11278 5.08514 4.22653 4.95622C4.34028 4.82731 4.48289 4.7271 4.64273 4.66378C8.13363 3.32196 14.0464 3.34378 14.1118 3.34378C14.1773 3.34378 20.09 3.32196 23.5809 4.66378C23.7407 4.7271 23.8834 4.82731 23.9971 4.95622C24.1109 5.08514 24.1925 5.23912 24.2355 5.4056C24.4973 6.40923 24.8027 8.25287 24.8027 11.3729C24.8027 14.4929 24.4973 16.3365 24.2355 17.3401Z" fill="#231F20"/>
  </svg>

</svg>
