<svg width="29" height="23" viewBox="0 0 29 23" fill="none" xmlns="http://www.w3.org/2000/svg">
<path fill-rule="evenodd" clip-rule="evenodd" d="M23.9391 4.05964C24.1176 4.20895 24.2038 4.44164 24.1655 4.67122L21.5393 20.4281C21.5027 20.6479 21.3571 20.8341 21.1527 20.9226C20.9483 21.0112 20.7129 20.99 20.5275 20.8665L12.6491 15.6142C12.496 15.5121 12.3927 15.3505 12.3645 15.1686C12.3363 14.9868 12.3857 14.8014 12.5006 14.6578L15.1112 11.3945L10.7513 14.3011C10.5553 14.4318 10.3042 14.4474 10.0935 14.342L4.8412 11.7159C4.60596 11.5983 4.46362 11.3516 4.47947 11.0891C4.49532 10.8266 4.66632 10.5988 4.914 10.5104L23.2971 3.945C23.5163 3.86671 23.7605 3.91033 23.9391 4.05964ZM6.80453 11.2295L10.34 12.9972L17.9014 7.95624C18.1707 7.77668 18.5308 7.82023 18.7495 8.05884C18.9683 8.29744 18.9805 8.65988 18.7782 8.91265L13.9733 14.9188L20.4111 19.2107L22.6866 5.55732L6.80453 11.2295Z" fill="#231F20"/>
</svg>
