<svg width="29" height="23" viewBox="0 0 29 23" fill="none" xmlns="http://www.w3.org/2000/svg">
<g clip-path="url(#clip0_38790_1700)">
<path d="M1.43481 6.14149C1.43481 5.28646 1.94992 4.82542 2.98012 4.75836L6.94997 4.7835C7.2164 4.7835 7.39402 4.90924 7.48283 5.16072C7.89136 6.41812 8.34874 7.50367 8.85496 8.41738C9.36118 9.33109 10.0228 10.3831 10.8399 11.5734C10.9109 11.7243 11.0264 11.7998 11.1862 11.7998C11.3106 11.7998 11.4083 11.7411 11.4793 11.6237L11.5592 11.3471L11.5859 6.99652C11.5859 6.69475 11.5104 6.49356 11.3594 6.39297C11.2084 6.29238 10.9287 6.21694 10.5202 6.16664C10.2004 6.11634 10.0406 5.93193 10.0406 5.61339C10.0406 5.54632 10.0495 5.49603 10.0672 5.4625C10.4402 4.37275 11.506 3.82788 13.2644 3.82788L14.7564 3.80273C15.4314 3.80273 15.9909 3.962 16.435 4.28055C16.879 4.59909 17.101 5.10204 17.101 5.78942V11.498C17.2254 11.5818 17.3408 11.6237 17.4474 11.6237C17.7138 11.6237 17.9447 11.4729 18.1401 11.1711C20.094 8.58922 21.1508 6.8624 21.3107 5.9906C21.3107 5.97384 21.3284 5.93193 21.364 5.86486C21.4883 5.61339 21.6926 5.39544 21.9768 5.21102C22.261 5.0266 22.5096 4.90086 22.7228 4.8338C22.7938 4.80027 22.8737 4.7835 22.9626 4.7835H27.0923L27.3587 4.80865C27.7139 4.80865 27.9892 4.96792 28.1846 5.28646C28.2557 5.38705 28.3045 5.49603 28.3312 5.61339C28.3578 5.73074 28.3756 5.8481 28.3845 5.96546C28.3933 6.08281 28.3978 6.14987 28.3978 6.16664V6.34268C28.2734 7.03005 27.9582 7.76353 27.4519 8.54312C26.9457 9.3227 26.3018 10.1652 25.5203 11.0705C24.7388 11.9758 24.2503 12.571 24.0549 12.856C23.8951 13.0572 23.8151 13.2416 23.8151 13.4092C23.8151 13.5434 23.8862 13.6943 24.0283 13.8619L27.9182 18.4891C28.1313 18.7574 28.2379 19.0508 28.2379 19.3693C28.2379 19.7549 28.0781 20.0734 27.7583 20.3249C27.4386 20.5764 27.0567 20.7189 26.6127 20.7524L26.1597 20.7776H22.11C22.0922 20.7776 22.0567 20.7818 22.0034 20.7902C21.9501 20.7985 21.9146 20.8027 21.8968 20.8027C21.5061 20.8027 21.1419 20.6435 20.8045 20.3249C20.6801 20.1908 19.8453 19.2017 18.3 17.3575C18.2112 17.2401 18.0868 17.1311 17.927 17.0305C17.8559 17.2988 17.7627 17.6844 17.6472 18.1874C17.5318 18.6903 17.4474 19.0508 17.3941 19.2687L17.3142 19.6962C17.1366 20.283 16.7636 20.6351 16.1952 20.7524L15.8222 20.7776H13.2111C11.7369 20.7776 10.267 20.1405 8.80167 18.8663C7.33629 17.5922 6.01745 15.945 4.84515 13.9248C3.67285 11.9046 2.58047 9.55323 1.56803 6.87078C1.47922 6.65283 1.43481 6.40974 1.43481 6.14149ZM17.4474 12.6548C17.0744 12.6548 16.7369 12.5584 16.435 12.3656C16.133 12.1728 15.982 11.9088 15.982 11.5734V5.78942C15.982 5.45412 15.8932 5.21521 15.7156 5.0727C15.538 4.9302 15.2271 4.85895 14.7831 4.85895L13.2644 4.90924C12.5006 4.90924 11.9234 5.03498 11.5326 5.28646C12.3141 5.63853 12.7049 6.20855 12.7049 6.99652V11.4226C12.6694 11.8417 12.4918 12.1896 12.172 12.4662C11.8523 12.7428 11.4971 12.8811 11.1063 12.8811C10.5734 12.8811 10.1649 12.638 9.88072 12.1518C8.49527 10.1735 7.46507 8.29583 6.79011 6.51871L6.55032 5.86486L3.00677 5.83972C2.77586 5.83972 2.64708 5.85229 2.62044 5.87744C2.5938 5.90259 2.58047 5.97384 2.58047 6.0912C2.58047 6.24208 2.59824 6.40135 2.63376 6.56901L3.19327 7.97729C4.68529 11.6154 6.30609 14.4822 8.05566 16.5779C9.80523 18.6735 11.5237 19.7214 13.2111 19.7214H15.8755C15.982 19.7214 16.062 19.692 16.1152 19.6334C16.1685 19.5747 16.2129 19.4615 16.2485 19.2939L16.3017 19.0424L16.808 16.8294C16.9501 16.5276 17.0744 16.3264 17.181 16.2258C17.3764 16.0414 17.6073 15.9492 17.8737 15.9492C18.3 15.9492 18.7352 16.1923 19.1792 16.6785L21.4439 19.3945C21.586 19.6124 21.737 19.7214 21.8968 19.7214H26.293C26.8258 19.7214 27.0923 19.5956 27.0923 19.3442C27.0923 19.2603 27.0656 19.1765 27.0123 19.0927L23.1491 14.5409C22.8471 14.1888 22.6961 13.8116 22.6961 13.4092C22.6961 13.0069 22.8382 12.6213 23.1224 12.2524C23.3533 11.9171 23.8018 11.3597 24.4679 10.5801C25.134 9.80052 25.7157 9.07123 26.213 8.39223C26.7104 7.71324 27.039 7.09711 27.1988 6.54386L27.2788 6.21694C27.261 6.18341 27.2521 6.12892 27.2521 6.05347C27.2521 5.97803 27.2432 5.91516 27.2255 5.86486H23.0425C22.7761 5.96546 22.5629 6.11634 22.403 6.31753L22.2432 6.79534C21.7991 7.95214 20.6357 9.73765 18.7529 12.1518C18.3799 12.4872 17.9447 12.6548 17.4474 12.6548Z" fill="#231F20"/>
</g>
<defs>
<clipPath id="clip0_38790_1700">
<rect width="28" height="22" fill="white" transform="translate(0.434814 0.802734)"/>
</clipPath>
</defs>
</svg>
