<svg width="29" height="23" viewBox="0 0 29 23" fill="none" xmlns="http://www.w3.org/2000/svg">
<path d="M17.9627 10.8274L12.7264 7.33651C12.6278 7.27157 12.5134 7.23452 12.3955 7.22926C12.2776 7.22401 12.1604 7.25075 12.0564 7.30665C11.9524 7.36256 11.8655 7.44554 11.8048 7.54682C11.7442 7.6481 11.712 7.7639 11.7118 7.88196V14.8638C11.7119 14.9828 11.7445 15.0995 11.806 15.2014C11.8675 15.3032 11.9557 15.3864 12.0609 15.442C12.1643 15.4977 12.2809 15.5242 12.3982 15.5184C12.5155 15.5126 12.629 15.4749 12.7264 15.4092L17.9627 11.9183C18.0527 11.8586 18.1266 11.7776 18.1777 11.6824C18.2287 11.5872 18.2555 11.4809 18.2555 11.3729C18.2555 11.2649 18.2287 11.1585 18.1777 11.0633C18.1266 10.9682 18.0527 10.8871 17.9627 10.8274ZM13.0209 13.642V9.10378L16.4245 11.3729L13.0209 13.642ZM25.5009 5.07832C25.406 4.71014 25.2249 4.36977 24.9727 4.08527C24.7204 3.80077 24.4042 3.58028 24.05 3.44196C20.33 2.01287 14.3627 2.03469 14.1118 2.03469C13.8609 2.03469 7.89363 2.01287 4.17363 3.44196C3.81946 3.58028 3.50322 3.80077 3.25096 4.08527C2.99871 4.36977 2.81765 4.71014 2.72273 5.07832C2.43909 6.14742 2.11182 8.11105 2.11182 11.3729C2.11182 14.6347 2.43909 16.5983 2.72273 17.6674C2.81765 18.0356 2.99871 18.376 3.25096 18.6605C3.50322 18.945 3.81946 19.1655 4.17363 19.3038C7.89363 20.7329 13.8609 20.7111 14.1118 20.7111H14.1882C14.9409 20.7111 20.5045 20.6674 24.05 19.3038C24.4042 19.1655 24.7204 18.945 24.9727 18.6605C25.2249 18.376 25.406 18.0356 25.5009 17.6674C25.7845 16.5983 26.1118 14.6347 26.1118 11.3729C26.1118 8.11105 25.7845 6.14742 25.5009 5.07832ZM24.2355 17.3401C24.1925 17.5066 24.1109 17.6606 23.9971 17.7895C23.8834 17.9184 23.7407 18.0186 23.5809 18.082C20.09 19.4238 14.1773 19.402 14.1118 19.402C14.0464 19.402 8.13363 19.4238 4.64273 18.082C4.48289 18.0186 4.34028 17.9184 4.22653 17.7895C4.11278 17.6606 4.03111 17.5066 3.98818 17.3401C3.72636 16.3365 3.42091 14.4929 3.42091 11.3729C3.42091 8.25287 3.72636 6.40923 3.98818 5.4056C4.03111 5.23912 4.11278 5.08514 4.22653 4.95622C4.34028 4.82731 4.48289 4.7271 4.64273 4.66378C8.13363 3.32196 14.0464 3.34378 14.1118 3.34378C14.1773 3.34378 20.09 3.32196 23.5809 4.66378C23.7407 4.7271 23.8834 4.82731 23.9971 4.95622C24.1109 5.08514 24.1925 5.23912 24.2355 5.4056C24.4973 6.40923 24.8027 8.25287 24.8027 11.3729C24.8027 14.4929 24.4973 16.3365 24.2355 17.3401Z" fill="#231F20"/>
</svg>
